<?xml version="1.0" encoding="utf-8"?>
<!-- Generator: Adobe Illustrator 25.2.3, SVG Export Plug-In . SVG Version: 6.00 Build 0)  -->
<svg version="1.1" xmlns="http://www.w3.org/2000/svg" x="0px" y="0px"
		 viewBox="0 0 2421.3 2499.9" style="enable-background:new 0 0 2421.3 2499.9;" xml:space="preserve">
<path fill="#016466" class="dmzabelin_logo" d="M1155.2,2498.9c-260.9-10.5-511.8-102.7-717.5-263.5c-40.3-31.5-74.7-62-114.5-101.9
	c-60.1-60.1-107.3-117.1-152.9-184.8c-13.1-19.4-32.6-49.9-32.6-50.9c0-1.2,0,0,8.3,2.2l11.1,3.9c14.7,4.2,7.3,2.4,14.7,4.2
	c6.4,1.9,11.7,3.5,26.9,6.9c6.7,1.4,16.7,4,24.5,5.5c15,3.4,20.7,4.7,36.9,7.7c45,7.6,82.2,11.1,121.4,5.4
	c42.7-5.9,47.4-7.6,78.1-16.5c42.5-13,71-25.5,99.2-36.6c19.4-9.3,21.8-10.5,34.3-16.9c6.5-3.9,12.1-6,17.6-9.3
	c3.2-2.1,6.5-3.9,10-6.2c5.5-3.5,11.8-7.7,15.1-10.1c5.8-3.4,11.4-7.2,16.8-11.3c6.5-4.8,8-6.4,11.8-8.9
	c13.7-10.1,13.6-9.9,19.4-14.8c11.2-9.7,7.9-6.5,11.2-9.7c1.7-1.6,5.8-5.4,9-8.6c10.8-10.9,26.1-21.3,33.4-31.9
	c2.3-3,4.8-5.9,7.5-8.6c2.9-3.1,5.7-6.3,8.3-9.6c1.7-2.3,3.6-4.5,5.7-6.4c5-5.7,9.1-12.3,14.1-17.2c10-14,19.9-28,29.1-41.4
	c1.5-2.1,2.9-4.4,4.1-6.7c1-1.9,3.4-5.8,5.2-8.7c2.2-2.6,3.3-5,5.6-8.9c2.9-5.4,1-1.9,6-10.9c3-6.6,3.1-6.5,5.3-11.1
	c3.1-6.1,4.1-7.8,9-17.4c7.2-15.5,0,0,8.3-18.3l3.8-8.3c2.7-5.8,0,0,4.9-12.5c1.1-3.2,1-3.2,2.6-7.1c1.1-3.4,2-5.9,3-9
	c2.7-7.7,4.4-13,4.4-13c2.7-8.5,3.9-13.9,5.2-17.7c2-6.2,2-6.1,3.4-10.9l1.8-7.4c1.2-5.3,0.9-3.1,2.2-10.4
	c2.8-11.2,2.5-11.6,4.3-19.8c2-11.8,2.4-11.7,3-18.6c1.9-11.2,1.9-16.8,3.1-28.2c1.1-26,0.8-24.4,0.9-40
	c-0.1-3.5,1.2-311.3,1.2-677.9V40.6l3-0.8c1.7-0.4,12.5-3,24-5.8c187.5-44.5,382.7-45.3,570.5-2.5c189.2,43.1,368.6,132,519,257.2
	c55.9,46.5,115.7,106.3,162.2,162.2c117.9,141.6,204.3,310.1,249.3,486.5c7.1,27.8,3.3,26.5,1.7,26.5c0,0,0,2-22.9-21.6
	c-13.9-13.4-14.5-14-36.7-30.2c-10.1-7.5-22.6-16.3-29.5-19.9c-9.5-6-25.6-15.4-35-20c-31.4-16.2-24.6-12.9-47.6-22.8
	c-23.7-10.7-23.2-11.1-47.8-20.5c-38.3-13-37.5-13.2-63.4-18c-30.4-4.6-21.6-4.3-59.1-6.8c-28.9-2.3-47.4-1.3-75.1,0.2
	c-35.6,4.5-35,3.7-53.6,7.9c-17.2,3.8-30.4,7.3-30.4,7.3l-26.1,6.7c-11.8,3.2-22.9,6.2-34.5,10.5c-20.3,7-32.2,12.2-45.6,17.8
	c-7.4,3.1-15.3,7-25.7,12.2c-8.1,4.1-8.1,3.9-16.3,8.4c-5.2,2.5-11.4,5.5-15.5,8.5c-15.8,10-0.2,0.2-15.8,10
	c-19.5,13-19.2,12.9-38.8,27.1c-19.2,15-4.8,4-19.2,15c-5.5,4-12.2,10.1-20.4,17.2c-7.7,7.7-8.9,8.7-25.3,25.5
	c0,0.5-3.4,4.2-7.5,8.3c-4.2,5.1-10.2,10.1-12.7,13.5c-0.3,0.8-4.9,4.5-4.9,4.5s-0.3-0.2-11.7-11.3L1588,983
	c-2.9-3.3-2.9-3.3-15.4-15.3c-7.9-7.4-8.8-8.1-14.4-13.7c-0.7-0.5-6.2-5.8-10.7-10.2s-9.4-8.3-9.4-8.3
	c-12.4-10.6-23.2-18.8-29.6-22.8c-10.4-7.2-9.9-6.6-20.9-14c-9.5-6-10.9-6.7-19.6-11.9c-10.9-6.5-8.7-5.5-19.7-11.9
	c-9.3-5-18.9-9.5-28.7-13.4c-0.8-0.3,0,0-12.5-5.5c-10.4-4.3-1.5-0.2-10.4-4.3c-12.3-5.1-6-2.9-20-8.3c-11.7-4.5-1.6-0.5-11-4
	c-5.4-2.3-15.1-6.1-20.5-6.7c-17-4.9,0,0-23-6.2c0,0-35-8.4-17.5-4.6c-5.7-1.4-5.7-1.5-17.4-3.8l-22.4-3.4
	c-8.8-0.8-22.3-2.8-22.3-2.8l-25.3-2.4c-18.5-2-28.7-1.2-45.9-0.6c-22.9-1-29.1,1.3-56.3,3.9l-25,3l-28.8,5.5
	c-18.7,3.7-23.4,4.9-40.2,10.1c-12.3,4.9-16.4,5.5-29.7,11.1c-11.4,4.3,0,0-24.1,9.4l-18.4,9c-9,6.5-8.5,5.5-15.2,11.3
	c-1.7,2-1.1,339.2,0.6,339.2c0.7,0,3-2.6,5.2-5.7c5-7.1,16.3-20.8,29.7-35.9c25.8-29,58.1-52.1,92.9-66.5c9.6-4,29-11.1,34-12.5
	c1.7-0.5,8.2-2.4,14.5-4.3c25.4-7.6,46.6-10.7,74.5-10.7c34.7,0,63,5.3,95.6,17.9c13.7,5.3,52.8,25,65.3,32.9
	c42.6,26.9,73.9,61.4,95.6,105.6c4.3,8.8,8.6,18.2,9.5,21s2.2,6.3,3,8c4.1,9.5,13.1,35.6,15.9,47.1c6.2,26.3,5,37.8,5,67.5
	c0,17-0.7,28.4-0.4,36.1c0.1,56.1-1.2,75.7-0.2,122.7c0.9,44.3,0.1,75.1,0.1,75.1c1.9,55,3.7,97.3,3.9,99.6s2.7,14.9,4.6,23.2
	l4.4,13.1l3.6,9.7l3.3,8.5l4,9.6c2,4.7,2.2,5,3.9,8.5c0.8,1.7,4.3,8.2,5,9.3c3.6,7.5,3.9,7.2,7.3,12.2c0.6,0.8,3.4,5.7,4.2,6.9
	c2.9,4.9,7.2,11,7.2,11c2,3,5,6.9,5,6.9c2.2,2.7,5.1,6.1,8.8,10.1c6.7,7.9,28.4,27.2,31.7,29.9c10,8.9,13.7,12.3,18.9,16.4
	c28.1,21.1,46.7,29.1,71.1,36.8c30.1,7.6,22.4,5.6,36.8,7.7c21,2.7,16.6,2.5,31.5,2.5c14.9-1.4,11.1,0.4,11.9-4.4
	c0.1-13.8,0.2-20-0.2-40.9s2.5-178.2,2.2-305.5c-2.8-76.1-1-141.7-0.9-210.8c0.3-22,3.5-38.8,7-59.2c0.9-5.2,4.3-20,6.4-28
	c16.1-60.3,53.9-113.4,105.1-147.9c12.8-8.6,46.9-28.6,57.1-33.5c20.5-9.8,42.2-17.1,64.5-21.5c27.8-5.6,70.2-5.4,98.9,0.5
	c6.8,1.4,12.8,2.9,38,9.6c48.9,13,87.1,34.7,121.1,68.8c19.9,20,30.1,33.4,45.5,60.2c8.4,14.6,19.6,36.6,24,46.9
	c7.3,17.4,14.1,42.7,16.9,63c2.7,19.2,3.8,114.7,3.4,298l-0.3,172.5l-13.2,25.2c-43.9,83.5-91.7,155.5-149,224.3
	c-46.6,55.9-106.3,115.7-162.2,162.2c-160.4,133.6-351.8,224.8-556.6,265.2C1352.4,2495.2,1253.8,2502.7,1155.2,2498.9
	L1155.2,2498.9z M289.2,1663.8c-20.9-2.7-52.2-10.8-71.5-18.5c-52.3-20.9-90.7-52.9-128.5-106.8c-29.8-42.5-46.2-84.9-52-134
	c-2-16.9-2-50,0-67c8.5-72.3,44.2-138.9,97.6-181.7c50.6-40.6,90.9-60.6,139.9-69.3c19.8-3.5,48.1-3.2,92,1.1
	c52.4,5.1,97.4,22.6,137,53.2c19.1,14.8,48.5,46.6,64.2,69.6c5.1,7.4,6.2,8.6,6.9,7c0.4-1.1,0.8-79,0.8-173.1
	c0.1-168.3-0.8-171.6-1.5-171.9c-7-3.3-7.1-3.2-14.1-6.3l-6.6-3c-6.6-2.9-6.5-2.8-13.3-5.5c-15.7-6.5-10.7-4.7-23.5-9.6
	c-9.2-4-9.5-4.5-19.9-8.1c-9.5-3.1-14.3-4.9-25.1-7.4c-21.1-5.6-31.1-7.7-41-9.3c-26-3.7-39.1-6.8-56.2-8.3c-17.8-0.9,0,0-32-2.6
	c-18.6-0.2,0,0-55.6,1.5c-49.1,6.5-37.2,5.4-83,14.8c-41.6,11-35.3,10.7-71.4,23.2c-23.3,9.8-24.8,8.8-46.5,19.3
	c-27,14.5-23.7,12.7-36.2,19.5c-17.9,9.2-23.4,13.5-49,30.8c-1.7,1.8,0,0.7,0,0c0-2.3,11.1-39.8,18.2-61.3
	c49.1-149.4,126-288.1,226.6-409c46.6-55.9,106.3-115.7,162.2-162.2c78.6-65.4,168.6-123.2,259.5-166.5c19.6-9.3,36.4-17,44.8-20.3
	l4.8-1.9l-2,2.5c-2.3,2.6-4.7,5-7.3,7.3c-2.9,2.6-7.4,6.4-9.3,8.5c-3.5,3.3-2.1,1.9-6.1,6.1l-7.4,8.6c-2.2,2.2-4.2,4.6-6.1,7.1
	c-3.2,4.3-3.5,5-7.6,10.2c-3.7,5.1-3,4.2-6,8.6c-1.9,3.6-2,3.6-6.7,10.9l-4.7,7.9l-4,8.5c-2.3,4.1-2.5,4.7-5,9.6
	c-2.8,6.1-3.1,7.9-5.7,13.4c-2.3,6-4,9.8-5.9,14.9c-1.7,5.9,0,0-3.3,10.5c-1.5,5-2.5,10.1-3.1,15.3l-1.1,6.9
	c-0.8,5.2-1.3,8.9-2.6,17.5c-1,10.5-1.1,10.8-1.6,19.4c0,5.6-1.8,79.1-2,550.5c-0.3,507.2-0.4,548.4-2,560.4
	c-7.8,59.4-27.2,105.3-64.5,152.6c-9.6,12.1-36.8,39.4-49.1,49.2c-39.8,31.6-87.1,51.4-133.2,55.7l-22.3,2
	C335.1,1665.1,299.1,1665,289.2,1663.8z"/>
</svg>
