<svg width="150" height="150" viewBox="0 0 150 150" fill="none" xmlns="http://www.w3.org/2000/svg">
<path d="M150 75C150 116.421 116.421 150 75 150C33.5786 150 0 116.421 0 75C0 33.5786 33.5786 0 75 0C116.421 0 150 33.5786 150 75Z" fill="#F5F5F5"/>
<path fill-rule="evenodd" clip-rule="evenodd" d="M18 123.824C26.0006 107.518 42.6438 96.3125 61.8865 96.3125H86.9807C106.513 96.3125 123.368 107.858 131.223 124.565C117.479 140.161 97.3555 150 74.9336 150C52.1588 150 31.755 139.849 18 123.824ZM109.576 47.5C109.576 67.1082 93.8445 83 74.4336 83C55.0227 83 39.2908 67.1082 39.2908 47.5C39.2908 27.8918 55.0227 12 74.4336 12C93.8445 12 109.576 27.8918 109.576 47.5Z" fill="#D9D9D9"/>
</svg>
